<svg width="24" height="24" fill="none" viewBox="0 0 24 24" data-fpl-icon-size="24">
    <path data-svg-property="fill" fill="white"
        d="M13.5 5.999a.5.5 0 0 1 0 1h-6a.5.5 0 0 0-.5.5v9a.5.5 0 0 0 .5.5h9a.5.5 0 0 0 .5-.5v-6a.5.5 0 0 1 1 0v6a1.5 1.5 0 0 1-1.5 1.5h-9a1.5 1.5 0 0 1-1.5-1.5v-9a1.5 1.5 0 0 1 1.5-1.5zm-3.275 5.082a.5.5 0 0 1 .629.065l4 4a.5.5 0 0 1-.707.706L10.5 12.206l-1.646 1.646a.5.5 0 1 1-.708-.707l2-2zm6.79-6.642c.126-.505.844-.505.97 0L18.3 5.7l1.26.315c.505.126.505.844 0 .97L18.3 7.3l-.315 1.26c-.126.505-.844.505-.97 0L16.7 7.3l-1.26-.315c-.505-.126-.505-.844 0-.97L16.7 5.7z"></path>
</svg>