<svg width="24" height="24" fill="none" viewBox="0 0 24 24" data-fpl-icon-size="24">
<path data-svg-property="fill"  fill="white" fill-rule="evenodd" d="M6.224 15.448a.5.5 0 1 1-.448-.895l4-2a.5.5 0 1 1 .448.895zM12 11.44 6.224 8.554a.5.5 0 0 0-.448.895l5.995 2.997.01.005 1.673.837-.25 1.752a2.45 2.45 0 0 0 1.329 2.537l.243.122a2.177 2.177 0 1 0 1.948-3.895l-2.49-1.245-.02-.01-1.096-.547 1.095-.548.021-.01 2.49-1.245a2.177 2.177 0 0 0-1.947-3.894l-.244.122a2.45 2.45 0 0 0-1.33 2.537l.251 1.752zm2.194-2.62.203 1.422 1.88-.94a1.177 1.177 0 1 0-1.053-2.105l-.244.122a1.45 1.45 0 0 0-.786 1.502m0 6.36.203-1.423 1.88.94a1.177 1.177 0 0 1-1.053 2.105l-.244-.121a1.45 1.45 0 0 1-.786-1.502" clip-rule="evenodd"></path>
</svg>