<svg width="24" height="24" fill="none" viewBox="0 0 24 24" data-fpl-icon-size="24">
<path data-svg-property="fill" fill="white" d="M9 7a2 2 0 0 1 1.935 1.5H18a.5.5 0 0 1 .5-.5h1a.5.5 0 0 1 .5.5v1a.5.5 0 0 1-.5.5h-1a.5.5 0 0 1-.5-.5h-7.065a1.999 1.999 0 0 1-3.87 0H6a.5.5 0 0 1-.5.5h-1a.5.5 0 0 1-.5-.5v-1a.5.5 0 0 1 .5-.5h1a.5.5 0 0 1 .5.5h1.065A2 2 0 0 1 9 7m0 1a1 1 0 1 0 0 2 1 1 0 0 0 0-2"></path>
<path data-svg-property="fill-ramp-400" fill="#fff6" fill-rule="evenodd" d="M6.218 9.5q-.15.21-.269.44c-.41.779-.641 1.784-.775 2.74a21 21 0 0 0-.186 2.642 24 24 0 0 0 .015 1.17v.01l.002.018v.005l.499-.025-.5.026a.5.5 0 0 0 .995.05l.005-.102-.001-.004v-.015l-.001-.016L6 16.396l-.007-.231c-.005-.2-.009-.487-.005-.831.008-.691.048-1.606.176-2.515.129-.918.341-1.788.67-2.415q.173-.327.366-.531a2 2 0 0 1-.137-.373zm4.72 0q-.043.16-.109.31c2.52.589 4.19 1.928 5.284 3.257.735.894 1.213 1.79 1.507 2.461a9 9 0 0 1 .376 1.024l.015.053.003.012v.002l.034.095A.5.5 0 0 0 19 16.48l-.015-.1v-.003l-.002-.007-.005-.02-.011-.04-.01-.032a7 7 0 0 0-.077-.256 10 10 0 0 0-.344-.895 11.6 11.6 0 0 0-1.65-2.695 10.4 10.4 0 0 0-3.84-2.933z" clip-rule="evenodd"></path>
</svg>