<svg width="24" height="24" fill="none" viewBox="0 0 24 24" data-fpl-icon-size="24">
    <path data-svg-property="fill" fill="white" d="M6.385 5.212a1 1 0 0 1 .81-.192l5.981 1.197.261.057A6 6 0 0 1 18 12.1v.487l.707.707a1 1 0 0 1 0 1.414l-4 4a1 1 0 0 1-1.414 0L12.586 18h-.488a6 6 0 0 1-5.825-4.563l-.058-.26-1.196-5.98a1 1 0 0 1 .274-.904l1-1zm.468.935 3.768 3.768a2.5 2.5 0 1 1-.707.707L6.146 6.854 6 7.001l1.196 5.98a5 5 0 0 0 4.68 4.015l.222.005H13l1 1 4-4-1-1V12.1a5 5 0 0 0-3.803-4.855l-.217-.048L7 6.001zM12 10.501a1.5 1.5 0 1 0 0 3 1.5 1.5 0 0 0 0-3"></path>
</svg>